<svg width="16.000000" height="16.000000" viewBox="0 0 16 16" fill="none" xmlns="http://www.w3.org/2000/svg" xmlns:xlink="http://www.w3.org/1999/xlink">
	<desc>
			Created with Pixso.
	</desc>
	<defs/>
	<path id="Shape" d="M0 2.88867C0 2.12305 0.304443 1.3877 0.846191 0.845703C1.38794 0.304688 2.1228 0 2.88892 0L13.1111 0C13.8774 0 14.6121 0.304688 15.1538 0.845703C15.6958 1.3877 16 2.12305 16 2.88867L16 13.1113C16 13.877 15.6958 14.6123 15.1538 15.1543C14.6121 15.6953 13.8774 16 13.1111 16L2.88892 16C2.1228 16 1.38794 15.6953 0.846191 15.1543C0.304443 14.6123 0 13.877 0 13.1113L0 2.88867ZM9.77783 7.11133L9.77783 1.33301L2.88892 1.33301C2.47632 1.33301 2.08057 1.49707 1.78906 1.78906C1.49731 2.08105 1.33325 2.47656 1.33325 2.88867L1.33325 7.11133L9.77783 7.11133ZM14.6667 2.88867L14.6667 4.44434L11.1111 4.44434L11.1111 1.33301L13.1111 1.33301C13.5237 1.33301 13.9194 1.49707 14.2112 1.78906C14.5029 2.08105 14.6667 2.47656 14.6667 2.88867ZM11.1111 5.77734L14.6667 5.77734L14.6667 10.2227L11.1111 10.2227L11.1111 5.77734ZM1.33325 13.1113L1.33325 8.44434L9.77783 8.44434L9.77783 14.667L2.88892 14.667C2.03027 14.667 1.33325 13.9697 1.33325 13.1113ZM14.6667 11.5557L11.1111 11.5557L11.1111 14.667L13.1111 14.667C13.5237 14.667 13.9194 14.5029 14.2112 14.2109C14.5029 13.9189 14.6667 13.5234 14.6667 13.1113L14.6667 11.5557Z" clip-rule="evenodd" fill="#828FA3" fill-opacity="1.000000" fill-rule="evenodd"/>
</svg>
