<svg width="15.000000" height="15.000000" viewBox="0 0 15 15" fill="none" xmlns="http://www.w3.org/2000/svg" xmlns:xlink="http://www.w3.org/1999/xlink">
	<desc>
			Created with Pixso.
	</desc>
	<defs/>
	<path id="Combined Shape" d="M14.9651 10.2705C15.135 9.86621 14.6492 9.52051 14.2417 9.70117C13.427 10.0586 12.5471 10.2422 11.6575 10.2412C8.16992 10.2412 5.34326 7.4707 5.34326 4.05371C5.34204 2.89941 5.66992 1.76953 6.28833 0.794922C6.5249 0.421875 6.24072 -0.0947266 5.80762 0.0146484C2.46655 0.867188 0 3.84375 0 7.38477C0 11.5908 3.47925 15 7.77173 15C11.0217 15 13.8049 13.0459 14.9651 10.2705ZM9.83496 0.758789C9.54077 0.317383 10.0674 -0.208984 10.5093 0.0859375L11.2966 0.611328C11.616 0.824219 11.9912 0.9375 12.375 0.9375C12.7588 0.9375 13.134 0.824219 13.4534 0.611328L14.24 0.0859375C14.6826 -0.208984 15.2092 0.317383 14.9143 0.758789L14.3892 1.54688C14.1763 1.86621 14.0625 2.24121 14.0625 2.625C14.0625 3.00879 14.1763 3.38379 14.3892 3.70312L14.9143 4.49121C15.2092 4.93262 14.6826 5.45898 14.2407 5.16406L13.4534 4.63965C13.134 4.42578 12.7588 4.3125 12.375 4.3125C11.9912 4.3125 11.616 4.42578 11.2966 4.63965L10.51 5.16406C10.0684 5.45898 9.54077 4.93262 9.83496 4.49121L10.3601 3.70312C10.573 3.38379 10.6865 3.00879 10.6865 2.625C10.6865 2.24121 10.573 1.86621 10.3601 1.54688L9.83496 0.758789Z" clip-rule="evenodd" fill="#828FA3" fill-opacity="1.000000" fill-rule="evenodd"/>
</svg>
