<svg width="18.333252" height="18.333008" viewBox="0 0 18.3333 18.333" fill="none" xmlns="http://www.w3.org/2000/svg" xmlns:xlink="http://www.w3.org/1999/xlink">
	<desc>
			Created with Pixso.
	</desc>
	<defs/>
	<path id="Combined Shape" d="M9.75586 0.244141C9.59961 0.0878906 9.3877 0 9.16675 0C8.94556 0 8.73364 0.0878906 8.57739 0.244141C8.42114 0.400391 8.33325 0.612305 8.33325 0.833008L8.33325 1.66699C8.33325 1.8877 8.42114 2.09961 8.57739 2.25586C8.73364 2.41211 8.94556 2.5 9.16675 2.5C9.3877 2.5 9.59961 2.41211 9.75586 2.25586C9.91211 2.09961 10 1.8877 10 1.66699L10 0.833008C10 0.612305 9.91211 0.400391 9.75586 0.244141ZM2.5 1.66699C2.27905 1.66699 2.06714 1.75488 1.91089 1.91113C1.75464 2.06738 1.66675 2.2793 1.66675 2.5C1.66675 2.7207 1.75464 2.93262 1.91089 3.08887L3.16089 4.33887C3.31812 4.49121 3.52856 4.5752 3.74707 4.57324C3.96558 4.57129 4.17456 4.4834 4.3291 4.3291C4.4834 4.1748 4.57129 3.96582 4.573 3.74707L4.573 3.74023C4.573 3.52344 4.48926 3.31641 4.33911 3.16113L3.08911 1.91113C2.93286 1.75488 2.72095 1.66699 2.5 1.66699ZM16.6665 2.5C16.6665 2.2793 16.5786 2.06738 16.4226 1.91113C16.2661 1.75488 16.0542 1.66699 15.8333 1.66699C15.6123 1.66699 15.4004 1.75488 15.2441 1.91113L13.9941 3.16113C13.9146 3.2373 13.8511 3.33008 13.8074 3.43164C13.7637 3.5332 13.7407 3.64258 13.7397 3.75293L13.7397 3.76074C13.7397 3.86816 13.7607 3.97559 13.8018 4.07617C13.8438 4.17773 13.9055 4.27148 13.9839 4.34961C14.062 4.42773 14.155 4.48926 14.2576 4.53125C14.3601 4.57324 14.4697 4.59473 14.5803 4.59375C14.6909 4.59277 14.8003 4.56934 14.9021 4.52637C15.0037 4.48242 15.0957 4.41895 15.1726 4.33887L16.4226 3.08887C16.5786 2.93262 16.6665 2.7207 16.6665 2.5ZM6.22021 6.21973C7.00171 5.43848 8.06152 5 9.1665 5C10.2715 5 11.3315 5.43848 12.1128 6.21973C12.8943 7.00195 13.3333 8.06152 13.3333 9.16602C13.3333 10.2715 12.8943 11.3311 12.1128 12.1123C11.3315 12.8945 10.2715 13.333 9.1665 13.333C8.06152 13.333 7.00171 12.8945 6.22021 12.1123C5.43896 11.3311 5 10.2715 5 9.16602C5 8.06152 5.43896 7.00195 6.22021 6.21973ZM0.244141 8.57715C0.0878906 8.7334 0 8.94531 0 9.16699C0 9.3877 0.0878906 9.59961 0.244141 9.75586C0.400391 9.91211 0.612305 10 0.833252 10L1.66675 10C1.8877 10 2.09961 9.91211 2.25586 9.75586C2.41211 9.59961 2.5 9.3877 2.5 9.16699C2.5 8.94531 2.41211 8.7334 2.25586 8.57715C2.09961 8.4209 1.8877 8.33301 1.66675 8.33301L0.833252 8.33301C0.612305 8.33301 0.400391 8.4209 0.244141 8.57715ZM16.0774 8.57715C15.9211 8.7334 15.8333 8.94531 15.8333 9.16699C15.8333 9.3877 15.9211 9.59961 16.0774 9.75586C16.2336 9.91211 16.4458 10 16.6667 10L17.5 10C17.7209 10 17.9331 9.91211 18.0894 9.75586C18.2456 9.59961 18.3333 9.3877 18.3333 9.16699C18.3333 8.94531 18.2456 8.7334 18.0894 8.57715C17.9331 8.4209 17.7209 8.33301 17.5 8.33301L16.6667 8.33301C16.4458 8.33301 16.2336 8.4209 16.0774 8.57715ZM4.58325 14.583C4.58325 14.3623 4.49536 14.1504 4.33911 13.9941C4.18286 13.8379 3.97095 13.75 3.75 13.75C3.52905 13.75 3.31714 13.8379 3.16089 13.9941L1.91089 15.2441C1.76074 15.3994 1.677 15.6074 1.677 15.8232L1.677 15.8301C1.67896 16.0488 1.76636 16.2578 1.9209 16.4121C2.07544 16.5664 2.28442 16.6543 2.50293 16.6562C2.72144 16.6582 2.93188 16.5742 3.08911 16.4229L4.33911 15.1729C4.49536 15.0166 4.58325 14.8047 4.58325 14.583ZM14.5833 13.75C14.3623 13.75 14.1504 13.8379 13.9941 13.9941C13.8379 14.1504 13.7502 14.3623 13.7502 14.583C13.7502 14.8047 13.8379 15.0166 13.9941 15.1729L15.2441 16.4229C15.4014 16.5742 15.6118 16.6582 15.8303 16.6562C16.0488 16.6543 16.2578 16.5664 16.4124 16.4121C16.5669 16.2578 16.6545 16.0488 16.6565 15.8301L16.6565 15.8232C16.6565 15.6074 16.5725 15.3994 16.4226 15.2441L15.1726 13.9941C15.0161 13.8379 14.8042 13.75 14.5833 13.75ZM9.75586 16.0771C9.59961 15.9209 9.3877 15.833 9.16675 15.833C8.94556 15.833 8.73364 15.9209 8.57739 16.0771C8.42114 16.2334 8.33325 16.4453 8.33325 16.667L8.33325 17.5C8.33325 17.7207 8.42114 17.9326 8.57739 18.0889C8.73364 18.2451 8.94556 18.333 9.16675 18.333C9.3877 18.333 9.59961 18.2451 9.75586 18.0889C9.91211 17.9326 10 17.7207 10 17.5L10 16.667C10 16.4453 9.91211 16.2334 9.75586 16.0771Z" clip-rule="evenodd" fill="#828FA3" fill-opacity="1.000000" fill-rule="evenodd"/>
</svg>
